<?xml version="1.0" encoding="UTF-8" standalone="no"?>
<!DOCTYPE svg PUBLIC "-//W3C//DTD SVG 1.1//EN" "http://www.w3.org/Graphics/SVG/1.1/DTD/svg11.dtd">
<svg width="100%" height="100%" viewBox="0 0 520 80" version="1.1" xmlns="http://www.w3.org/2000/svg" xmlns:xlink="http://www.w3.org/1999/xlink" xml:space="preserve" xmlns:serif="http://www.serif.com/" style="fill-rule:evenodd;clip-rule:evenodd;stroke-linejoin:round;stroke-miterlimit:2;">
    <g transform="matrix(1,0,0,1,-13,-2703.81)">
        <g id="Artboard5" transform="matrix(1,0,0,1.05148,-0.685305,-141.342)">
            <rect x="13.685" y="2705.86" width="520" height="75.945" style="fill:none;"/>
            <clipPath id="_clip1">
                <rect x="13.685" y="2705.86" width="520" height="75.945"/>
            </clipPath>
            <g clip-path="url(#_clip1)">
                <g transform="matrix(1,0,0,0.951042,0.685305,134.422)">
                    <path d="M271.537,2755L279.147,2755L279.147,2756.2C277.364,2757.72 274.446,2758.81 270.259,2758.7C260.235,2758.49 256.048,2751.1 256.048,2743.84C256.048,2736.56 261.757,2731.13 270.259,2731.13C276.857,2731.13 280.917,2733.63 282.567,2736.55L316.42,2736.55C314.772,2718.33 295.888,2703.8 269.244,2703.8C239.566,2703.8 219.155,2720.61 219.155,2743.84C219.155,2767.05 239.566,2783.87 269.244,2783.87C280.029,2783.87 288.403,2781.37 294.748,2777.14L294.748,2781.8L316.42,2781.8L316.42,2741.24L271.537,2741.24L271.537,2755ZM375.913,2703.8C346.233,2703.8 325.948,2720.61 325.948,2743.83C325.948,2767.05 346.233,2783.87 375.913,2783.87C405.593,2783.87 425.877,2767.05 425.877,2743.83C425.877,2720.61 405.593,2703.8 375.913,2703.8ZM80.643,2781.8L116.912,2781.8L90.281,2705.86L40.316,2705.86L13.685,2781.8L49.954,2781.8L53.251,2769.76L77.346,2769.76L80.643,2781.8ZM178.441,2781.8L214.7,2781.8L198.344,2755.66C205.696,2751.1 209.373,2743.84 209.373,2733.74C209.373,2715.08 196.822,2705.86 171.08,2705.86L125.806,2705.86L125.806,2781.8L159.654,2781.8L159.654,2761.51L167.018,2761.51L178.441,2781.8ZM499.837,2705.86L499.837,2743.62L498.948,2743.62L478.898,2705.86L435.405,2705.86L435.405,2781.8L469.254,2781.8L469.254,2744.05L470.142,2744.05L491.334,2781.8L533.685,2781.8L533.685,2705.86L499.837,2705.86ZM375.913,2756.64C367.918,2756.64 361.319,2750.89 361.319,2743.83C361.319,2736.78 367.03,2731.02 375.913,2731.02C384.796,2731.02 390.507,2736.78 390.507,2743.83C390.507,2750.89 383.908,2756.64 375.913,2756.64ZM59.338,2747.09L63.523,2731.67L67.074,2731.67L71.259,2747.09L59.338,2747.09ZM167.779,2727.55C173.365,2727.55 176.412,2729.18 176.412,2733.74C176.412,2738.2 173.365,2739.82 167.779,2739.82L159.654,2739.82L159.654,2727.55L167.779,2727.55Z" style="fill:rgb(228,58,187);fill-opacity:0.99;fill-rule:nonzero;"/>
                </g>
            </g>
        </g>
    </g>
</svg>
